<svg width="88" height="88" viewBox="0 0 88 88" fill="none" xmlns="http://www.w3.org/2000/svg">
<path d="M78.3028 18.088L45.3028 7.08798C44.4577 6.8027 43.5423 6.8027 42.6972 7.08798L9.6972 18.088C8.90979 18.3488 8.21929 18.8409 7.71583 19.5001C7.21238 20.1593 6.91935 20.955 6.87501 21.7833C6.87125 21.8554 6.87125 21.9277 6.87501 21.9999V49.4999C6.87501 50.5939 7.30961 51.6431 8.0832 52.4167C8.85679 53.1903 9.906 53.6249 11 53.6249C12.094 53.6249 13.1432 53.1903 13.9168 52.4167C14.6904 51.6431 15.125 50.5939 15.125 49.4999V27.7233L23.2753 30.4389C20.7459 35.2806 19.9942 40.856 21.1511 46.1947C22.3081 51.5334 25.3003 56.2974 29.6072 59.6577C23.9712 62.4369 19.2013 66.7028 15.8125 71.9949C15.5073 72.4484 15.2954 72.9581 15.1889 73.4943C15.0825 74.0305 15.0837 74.5825 15.1924 75.1183C15.3012 75.654 15.5154 76.1628 15.8225 76.615C16.1296 77.0673 16.5236 77.454 16.9814 77.7526C17.4393 78.0513 17.952 78.2559 18.4897 78.3547C19.0274 78.4535 19.5793 78.4444 20.1134 78.3279C20.6476 78.2115 21.1532 77.9901 21.601 77.6765C22.0488 77.363 22.4298 76.9635 22.7219 76.5014C27.6272 68.9527 35.4063 64.6249 44 64.6249C52.5938 64.6249 60.3728 68.9527 65.2953 76.5014C65.5874 76.9635 65.9684 77.363 66.4162 77.6765C66.864 77.9901 67.3697 78.2115 67.9038 78.3279C68.4379 78.4444 68.9899 78.4535 69.5275 78.3547C70.0652 78.2559 70.5779 78.0513 71.0358 77.7526C71.4936 77.454 71.8876 77.0673 72.1947 76.615C72.5019 76.1628 72.716 75.654 72.8248 75.1183C72.9336 74.5825 72.9347 74.0305 72.8283 73.4943C72.7218 72.9581 72.5099 72.4484 72.2047 71.9949C68.8127 66.6967 64.0365 62.4269 58.3928 59.6474C62.6997 56.2871 65.692 51.5231 66.8489 46.1844C68.0058 40.8457 67.2542 35.2703 64.7247 30.4286L78.3028 25.9014C79.1231 25.627 79.8364 25.1016 80.3418 24.3996C80.8471 23.6976 81.1191 22.8545 81.1191 21.9895C81.1191 21.1246 80.8471 20.2815 80.3418 19.5795C79.8364 18.8775 79.1231 18.3521 78.3028 18.0777V18.088ZM44 15.338L63.9547 21.9999L44 28.6514L24.0625 21.9999L44 15.338ZM59.125 41.2499C59.1255 43.5992 58.5786 45.9163 57.5279 48.0175C56.4771 50.1187 54.9514 51.9463 53.0715 53.3553C51.1917 54.7644 49.0094 55.7161 46.6978 56.1352C44.3862 56.5542 42.0087 56.429 39.7539 55.7694C37.4991 55.1099 35.4289 53.9342 33.7074 52.3355C31.986 50.7368 30.6606 48.759 29.8364 46.5591C29.0122 44.3591 28.7118 41.9974 28.959 39.6611C29.2062 37.3249 29.9942 35.0783 31.2606 33.0995L42.6972 36.9117C43.5425 37.196 44.4575 37.196 45.3028 36.9117L56.7394 33.0995C58.2993 35.5315 59.1274 38.3606 59.125 41.2499Z" fill="#161C9D"/>
</svg>
