<svg width="88" height="88" viewBox="0 0 88 88" fill="none" xmlns="http://www.w3.org/2000/svg">
<path d="M36.6667 14.6665C32.7769 14.6665 29.0463 16.2117 26.2958 18.9623C23.5453 21.7128 22 25.4433 22 29.3332C22 33.223 23.5453 36.9535 26.2958 39.7041C29.0463 42.4546 32.7769 43.9998 36.6667 43.9998C40.5565 43.9998 44.2871 42.4546 47.0376 39.7041C49.7881 36.9535 51.3334 33.223 51.3334 29.3332C51.3334 25.4433 49.7881 21.7128 47.0376 18.9623C44.2871 16.2117 40.5565 14.6665 36.6667 14.6665ZM62.3334 43.9998C62.1093 43.9957 61.8909 44.0706 61.7166 44.2114C61.5423 44.3522 61.4231 44.5499 61.38 44.7698L60.6834 49.6098C59.5834 50.0865 58.52 50.6732 57.5667 51.3332L53.02 49.4998C52.6167 49.4998 52.14 49.4998 51.8834 49.9765L48.2167 56.3198C47.9967 56.7232 48.07 57.1998 48.4367 57.4932L52.3234 60.4998C52.1771 61.7177 52.1771 62.9487 52.3234 64.1665L48.4367 67.1732C48.2719 67.3145 48.1603 67.5078 48.1203 67.7211C48.0803 67.9345 48.1143 68.1551 48.2167 68.3465L51.8834 74.6898C52.1034 75.1665 52.58 75.1665 53.02 75.1665L57.5667 73.3332C58.52 73.9932 59.5467 74.6165 60.6834 75.0565L61.38 79.8965C61.4534 80.3365 61.82 80.6665 62.3334 80.6665H69.6667C70.07 80.6665 70.4734 80.3365 70.5467 79.8965L71.2434 75.0565C72.3434 74.5798 73.3334 73.9932 74.3234 73.3332L78.8334 75.1665C79.31 75.1665 79.7867 75.1665 80.0434 74.6898L83.71 68.3465C83.8124 68.1551 83.8464 67.9345 83.8064 67.7211C83.7664 67.5078 83.6548 67.3145 83.49 67.1732L79.5667 64.1665C79.64 63.5432 79.7134 62.9565 79.7134 62.3332C79.7134 61.7098 79.6767 61.1232 79.5667 60.4998L83.4534 57.4932C83.6181 57.3519 83.7298 57.1586 83.7698 56.9452C83.8098 56.7319 83.7758 56.5112 83.6734 56.3198L80.0067 49.9765C79.7867 49.4998 79.31 49.4998 78.8334 49.4998L74.3234 51.3332C73.3334 50.6732 72.3434 50.0498 71.2067 49.6098L70.51 44.7698C70.4869 44.561 70.3886 44.3677 70.2334 44.226C70.0782 44.0843 69.8768 44.0039 69.6667 43.9998H62.3334ZM36.6667 51.3332C20.46 51.3332 7.33337 57.8965 7.33337 65.9998V73.3332H42.8267C41.1903 69.8967 40.3386 66.1394 40.3334 62.3332C40.3408 58.6493 41.1412 55.0102 42.68 51.6632C40.7367 51.4432 38.72 51.3332 36.6667 51.3332ZM66 56.8332C69.0434 56.8332 71.5 59.2898 71.5 62.3332C71.5 65.3765 69.0434 67.8332 66 67.8332C62.92 67.8332 60.5 65.3765 60.5 62.3332C60.5 59.2898 62.9567 56.8332 66 56.8332Z" fill="#161C9D"/>
</svg>
